<?xml version="1.0" encoding="utf-8"?>
<svg xmlns="http://www.w3.org/2000/svg" xmlns:xlink="http://www.w3.org/1999/xlink" version="1.1" style="width:0;height:0;position:absolute;overflow:hidden;">
  <defs>
<symbol viewBox="0 0 16 16" aria-labelledby="bgsi-icomoon-baffled-title" id="si-icomoon-baffled"><title id="bgsi-icomoon-baffled-title">icon baffled</title><path d="M8 16A8 8 0 1 0 8 0a8 8 0 0 0 0 16zM8 1.5a6.5 6.5 0 1 1 0 13 6.5 6.5 0 0 1 0-13z"/><path d="M6 6.5a.5.5 0 1 1-1 0 .5.5 0 0 1 1 0z"/><path d="M5.5 5a1.5 1.5 0 1 1-.001 3.001A1.5 1.5 0 0 1 5.5 5zm0-1C4.122 4 3 5.122 3 6.5S4.122 9 5.5 9 8 7.878 8 6.5 6.878 4 5.5 4zM11 6.5a.5.5 0 1 1-1 0 .5.5 0 0 1 1 0z"/><path d="M10.5 5a1.5 1.5 0 1 1-.001 3.001A1.5 1.5 0 0 1 10.5 5zm0-1C9.121 4 8 5.122 8 6.5S9.121 9 10.5 9 13 7.878 13 6.5 11.879 4 10.5 4zM6 11h4v1H6v-1z"/></symbol>
<symbol viewBox="0 0 13 16" aria-labelledby="bnsi-icomoon-bin-title" id="si-icomoon-bin"><title id="bnsi-icomoon-bin-title">icon bin</title><path d="M1 5v10c0 .55.45 1 1 1h9c.55 0 1-.45 1-1V5H1zm3 9H3V7h1v7zm2 0H5V7h1v7zm2 0H7V7h1v7zm2 0H9V7h1v7zm2.25-12H9V.75A.753.753 0 0 0 8.25 0h-3.5A.753.753 0 0 0 4 .75V2H.75a.752.752 0 0 0-.75.75V4h13V2.75a.752.752 0 0 0-.75-.75zM8 2H5v-.987h3V2z"/></symbol>
<symbol viewBox="0 0 16 12.5" aria-labelledby="cssi-icomoon-checkmark-title" id="si-icomoon-checkmark"><title id="cssi-icomoon-checkmark-title">icon checkmark</title><path d="M13.5 0L6 7.5 2.5 4 0 6.5l6 6 10-10z"/></symbol>
<symbol viewBox="0 0 16.013999938964844 12.677999496459961" aria-labelledby="ctsi-icomoon-checkmark2-title" id="si-icomoon-checkmark2"><title id="ctsi-icomoon-checkmark2-title">icon checkmark2</title><path d="M6.217 12.678L0 6.559l3.084-3.035 3.133 3.083L12.93 0l3.084 3.035-9.797 9.643zM1.693 6.559l4.524 4.453 8.104-7.976-1.391-1.369-6.713 6.607-3.133-3.083L1.693 6.56z"/></symbol>
<symbol viewBox="0 0 16.000001907348633 16" aria-labelledby="cvsi-icomoon-circle-down-title" id="si-icomoon-circle-down"><title id="cvsi-icomoon-circle-down-title">icon circle-down</title><path d="M16 8A8 8 0 1 0 0 8a8 8 0 0 0 16 0zM1.5 8a6.5 6.5 0 1 1 13 0 6.5 6.5 0 0 1-13 0z"/><path d="M4.957 5.543L3.543 6.957 8 11.414l4.457-4.457-1.414-1.414L8 8.586z"/></symbol>
<symbol viewBox="0 0 16 16" aria-labelledby="cwsi-icomoon-circle-left-title" id="si-icomoon-circle-left"><title id="cwsi-icomoon-circle-left-title">icon circle-left</title><path d="M8 16A8 8 0 1 0 8 0a8 8 0 0 0 0 16zM8 1.5a6.5 6.5 0 1 1 0 13 6.5 6.5 0 0 1 0-13z"/><path d="M10.457 4.957L9.043 3.543 4.586 8l4.457 4.457 1.414-1.414L7.414 8z"/></symbol>
<symbol viewBox="0 0 16 16" aria-labelledby="cxsi-icomoon-circle-right-title" id="si-icomoon-circle-right"><title id="cxsi-icomoon-circle-right-title">icon circle-right</title><path d="M8 0a8 8 0 1 0 0 16A8 8 0 0 0 8 0zm0 14.5a6.5 6.5 0 1 1 0-13 6.5 6.5 0 0 1 0 13z"/><path d="M5.543 11.043l1.414 1.414L11.414 8 6.957 3.543 5.543 4.957 8.586 8z"/></symbol>
<symbol viewBox="0 0 16.000001907348633 16" aria-labelledby="cysi-icomoon-circle-up-title" id="si-icomoon-circle-up"><title id="cysi-icomoon-circle-up-title">icon circle-up</title><path d="M0 8a8 8 0 1 0 16 0A8 8 0 0 0 0 8zm14.5 0a6.5 6.5 0 1 1-13 0 6.5 6.5 0 0 1 13 0z"/><path d="M11.043 10.457l1.414-1.414L8 4.586 3.543 9.043l1.414 1.414L8 7.414z"/></symbol>
<symbol viewBox="0 0 16.39209747314453 10.019006729125977" aria-labelledby="desi-icomoon-cloud-check-title" id="si-icomoon-cloud-check"><title id="desi-icomoon-cloud-check-title">icon cloud-check</title><path d="M14.227 5.057a2.5 2.5 0 0 0-3.085-2.955 3 3 0 0 0-5.737.075 4 4 0 1 0-1.12 7.84h9.5a2.5 2.5 0 0 0 .442-4.96zm-7.442 3.96l-2.5-2.5 1-1 1.5 1.5 3.5-3.5 1 1-4.5 4.5z"/></symbol>
<symbol viewBox="0 0 16.392093658447266 13.017889022827148" aria-labelledby="dgsi-icomoon-cloud-upload-title" id="si-icomoon-cloud-upload"><title id="dgsi-icomoon-cloud-upload-title">icon cloud-upload</title><path d="M14.227 5.057a2.5 2.5 0 0 0-3.085-2.955 3 3 0 0 0-5.737.075 4 4 0 1 0-1.12 7.84h2v3h4v-3h3.5a2.5 2.5 0 0 0 .442-4.96zm-4.942 3.96v3h-2v-3h-2.5l3.5-3.5 3.5 3.5h-2.5z"/></symbol>
<symbol viewBox="0 0 15.436001777648926 16" aria-labelledby="djsi-icomoon-cog-title" id="si-icomoon-cog"><title id="djsi-icomoon-cog-title">icon cog</title><path d="M14.309 9.535a3.053 3.053 0 0 1 1.127-4.164l-1.572-2.723a3.017 3.017 0 0 1-1.529.414A3.052 3.052 0 0 1 9.293 0H6.148a3.009 3.009 0 0 1-.406 1.535c-.839 1.454-2.706 1.948-4.17 1.106L0 5.364a3 3 0 0 1 1.123 1.117 3.053 3.053 0 0 1-1.12 4.16l1.572 2.723c.448-.261.967-.41 1.522-.41A3.052 3.052 0 0 1 6.139 16h3.145a3.012 3.012 0 0 1 .406-1.519 3.053 3.053 0 0 1 4.163-1.11l1.572-2.723a3.008 3.008 0 0 1-1.116-1.113zm-6.59 1.705a3.24 3.24 0 1 1 0-6.48 3.24 3.24 0 0 1 0 6.48z"/></symbol>
<symbol viewBox="0 0 16.09674072265625 16.09838104248047" aria-labelledby="ebsi-icomoon-cross-title" id="si-icomoon-cross"><title id="ebsi-icomoon-cross-title">icon cross</title><path d="M15.903 12.903L11.05 8.05l4.854-4.854a.503.503 0 0 0 0-.707L13.61.195a.499.499 0 0 0-.707 0L8.05 5.05 3.195.195a.5.5 0 0 0-.707 0L.195 2.488a.499.499 0 0 0 0 .707L5.05 8.05.195 12.903a.5.5 0 0 0 0 .707l2.293 2.293a.499.499 0 0 0 .707 0L8.05 11.05l4.854 4.854a.5.5 0 0 0 .707 0l2.293-2.293a.499.499 0 0 0 0-.707z"/></symbol>
<symbol viewBox="0 0 8.094847679138184 5.057369709014893" aria-labelledby="efsi-icomoon-ctrl-title" id="si-icomoon-ctrl"><title id="efsi-icomoon-ctrl-title">icon ctrl</title><path d="M7.56 5a.5.5 0 0 1-.377-.172l-3.124-3.57-3.124 3.57a.5.5 0 1 1-.753-.659l3.5-4a.502.502 0 0 1 .752 0l3.5 4a.5.5 0 0 1-.376.83z"/></symbol>
<symbol viewBox="0 0 15 16" aria-labelledby="fjsi-icomoon-exit-title" id="si-icomoon-exit"><title id="fjsi-icomoon-exit-title">icon exit</title><path d="M12 10V8H7V6h5V4l3 3zm-1-1v4H6v3l-6-3V0h11v5h-1V1H2l4 2v9h4V9z"/></symbol>
<symbol viewBox="0 0 14 16" aria-labelledby="fxsi-icomoon-file-picture-title" id="si-icomoon-file-picture"><title id="fxsi-icomoon-file-picture-title">icon file-picture</title><path d="M12 14H2v-2l3-5 4.109 5L12 10v4zm0-6.5a1.5 1.5 0 1 1-3.001-.001A1.5 1.5 0 0 1 12 7.5z"/><path d="M13.341 3.579c-.347-.473-.831-1.027-1.362-1.558S10.894 1.006 10.421.659C9.615.068 9.224 0 9 0H1.25C.561 0 0 .561 0 1.25v13.5C0 15.439.561 16 1.25 16h11.5c.689 0 1.25-.561 1.25-1.25V5c0-.224-.068-.615-.659-1.421zm-2.07-.85c.48.48.856.912 1.134 1.271H9.999V1.595c.359.278.792.654 1.271 1.134zM13 14.75c0 .136-.114.25-.25.25H1.25a.253.253 0 0 1-.25-.25V1.25c0-.135.115-.25.25-.25H9v3.5a.5.5 0 0 0 .5.5H13v9.75z"/></symbol>
<symbol viewBox="0 0 16 16" aria-labelledby="ggsi-icomoon-filter-title" id="si-icomoon-filter"><title id="ggsi-icomoon-filter-title">icon filter</title><path d="M8 0C3.582 0 0 1.119 0 2.5V4l6 6v5c0 .552.895 1 2 1s2-.448 2-1v-5l6-6V2.5C16 1.119 12.418 0 8 0zM1.475 2.169c.374-.213.9-.416 1.52-.586C4.369 1.207 6.147 1 8 1s3.631.207 5.005.583c.62.17 1.146.372 1.52.586.247.141.38.26.442.331-.062.071-.195.19-.442.331-.374.213-.9.416-1.52.586C11.631 3.793 9.853 4 8 4s-3.631-.207-5.005-.583c-.62-.17-1.146-.372-1.52-.586a1.741 1.741 0 0 1-.442-.331c.062-.071.195-.19.442-.331z"/></symbol>
<symbol viewBox="0 0 15.999999046325684 14.815999984741211" aria-labelledby="ibsi-icomoon-heart-title" id="si-icomoon-heart"><title id="ibsi-icomoon-heart-title">icon heart</title><path d="M11.799 0C10.117 0 8.67 1.368 8 2.797 7.329 1.368 5.882 0 4.2 0A4.202 4.202 0 0 0 0 4.2c0 4.716 4.758 5.953 8 10.616 3.065-4.634 8-6.05 8-10.616C16 1.881 14.118 0 11.8 0z"/></symbol>
<symbol viewBox="0 0 16 14.515999794006348" aria-labelledby="igsi-icomoon-home-title" id="si-icomoon-home"><title id="igsi-icomoon-home-title">icon home</title><path d="M16 8.742l-8-6.21-8 6.21V6.21L8 0l8 6.21zm-2-.226v6h-4v-4H6v4H2v-6l6-4.5z"/></symbol>
<symbol viewBox="0 0 13.999258995056152 16" aria-labelledby="ijsi-icomoon-hour-glass-title" id="si-icomoon-hour-glass"><title id="ijsi-icomoon-hour-glass-title">icon hour-glass</title><path d="M10.39 8C12.54 6.635 14 4.012 14 1c0-.339-.02-.672-.055-1H.055A9.155 9.155 0 0 0 0 1c0 3.012 1.457 5.635 3.61 7C1.456 9.365 0 11.988 0 15c0 .339.02.672.054 1h13.891c.036-.328.054-.661.054-1 0-3.012-1.457-5.635-3.609-7zM1.5 15c0-2.921 1.252-5.397 3.5-6.214V7.214C2.751 6.397 1.5 3.92 1.5 1h11c0 2.921-1.254 5.397-3.5 6.214v1.572c2.246.817 3.5 3.294 3.5 6.214h-11zm7.181-4.538c-1.12-.635-1.18-1.459-1.182-1.959V7.499c0-.5.06-1.327 1.184-1.963.602-.349 1.122-.88 1.516-1.537H3.8c.395.657.916 1.188 1.518 1.538 1.12.635 1.181 1.459 1.182 1.959V8.5c0 .5-.059 1.327-1.184 1.963-1.135.659-1.98 1.964-2.236 3.537h7.84c-.257-1.574-1.103-2.879-2.239-3.538z"/></symbol>
<symbol viewBox="0 0 16 14" aria-labelledby="imsi-icomoon-image-title" id="si-icomoon-image"><title id="imsi-icomoon-image-title">icon image</title><path d="M14.998 1l.002.002v11.996l-.002.002H1.002L1 12.998V1.002L1.002 1h13.996zM15 0H1C.45 0 0 .45 0 1v12c0 .55.45 1 1 1h14c.55 0 1-.45 1-1V1c0-.55-.45-1-1-1z"/><path d="M13 3.5a1.5 1.5 0 1 1-3.001-.001A1.5 1.5 0 0 1 13 3.5zm1 8.5H2v-2l3.5-6 4 5h1L14 6z"/></symbol>
<symbol viewBox="0 0 18 16" aria-labelledby="insi-icomoon-images-title" id="si-icomoon-images"><title id="insi-icomoon-images-title">icon images</title><path d="M17 2h-1V1c0-.55-.45-1-1-1H1C.45 0 0 .45 0 1v12c0 .55.45 1 1 1h1v1c0 .55.45 1 1 1h14c.55 0 1-.45 1-1V3c0-.55-.45-1-1-1zM2 3v10h-.998L1 12.998V1.002L1.002 1h13.996l.002.002V2H3c-.55 0-1 .45-1 1zm15 11.998l-.002.002H3.002L3 14.998V3.002L3.002 3h13.996l.002.002v11.996z"/><path d="M15 5.5a1.5 1.5 0 1 1-3.001-.001A1.5 1.5 0 0 1 15 5.5zm1 8.5H4v-2l3.5-6 4 5h1L16 8z"/></symbol>
<symbol viewBox="0 0 16 16" aria-labelledby="irsi-icomoon-info-title" id="si-icomoon-info"><title id="irsi-icomoon-info-title">icon info</title><path d="M7 4.75c0-.412.338-.75.75-.75h.5c.412 0 .75.338.75.75v.5c0 .412-.338.75-.75.75h-.5A.753.753 0 0 1 7 5.25v-.5zM10 12H6v-1h1V8H6V7h3v4h1z"/><path d="M8 0a8 8 0 1 0 0 16A8 8 0 0 0 8 0zm0 14.5a6.5 6.5 0 1 1 0-13 6.5 6.5 0 0 1 0 13z"/></symbol>
<symbol viewBox="0 0 16.37930679321289 16.000185012817383" aria-labelledby="iwsi-icomoon-key-title" id="si-icomoon-key"><title id="iwsi-icomoon-key-title">icon key</title><path d="M11 0a5 5 0 0 0-4.916 5.916L0 12v3a1 1 0 0 0 1 1h1v-1h2v-2h2v-2h2l1.298-1.298A5 5 0 1 0 11 0zm1.498 5.002a1.5 1.5 0 1 1 .001-3 1.5 1.5 0 0 1-.001 3z"/></symbol>
<symbol viewBox="0 0 16 4" aria-labelledby="kpsi-icomoon-minus-title" id="si-icomoon-minus"><title id="kpsi-icomoon-minus-title">icon minus</title><path d="M0 .5v3a.5.5 0 0 0 .5.5h15a.5.5 0 0 0 .5-.5v-3a.5.5 0 0 0-.5-.5H.5a.5.5 0 0 0-.5.5z"/></symbol>
<symbol viewBox="0 0 16.159549713134766 16" aria-labelledby="lwsi-icomoon-pencil-title" id="si-icomoon-pencil"><title id="lwsi-icomoon-pencil-title">icon pencil</title><path d="M13.5 0a2.5 2.5 0 0 1 2 4l-1 1L11 1.5l1-1c.418-.314.937-.5 1.5-.5zM1 11.5L0 16l4.5-1 9.25-9.25-3.5-3.5L1 11.5zm10.181-5.819l-7 7-.862-.862 7-7 .862.862z"/></symbol>
<symbol viewBox="0 0 16 16" aria-labelledby="lxsi-icomoon-pencil2-title" id="si-icomoon-pencil2"><title id="lxsi-icomoon-pencil2-title">icon pencil2</title><path d="M6.001 10l2-1 7-7-1-1-7 7-1 2zm-1.48 3.548c-.494-1.043-1.026-1.574-2.069-2.069L4 7.217 6 6l6-6H9L3 6 0 16l10-3 6-6V4l-6 6-1.217 2z"/></symbol>
<symbol viewBox="0 0 16 16" aria-labelledby="mhsi-icomoon-plus-title" id="si-icomoon-plus"><title id="mhsi-icomoon-plus-title">icon plus</title><path d="M15.5 6H10V.5a.5.5 0 0 0-.5-.5h-3a.5.5 0 0 0-.5.5V6H.5a.5.5 0 0 0-.5.5v3a.5.5 0 0 0 .5.5H6v5.5a.5.5 0 0 0 .5.5h3a.5.5 0 0 0 .5-.5V10h5.5a.5.5 0 0 0 .5-.5v-3a.5.5 0 0 0-.5-.5z"/></symbol>
<symbol viewBox="0 0 16 16" aria-labelledby="mxsi-icomoon-question-title" id="si-icomoon-question"><title id="mxsi-icomoon-question-title">icon question</title><path d="M7 11h2v2H7zm4-7a1 1 0 0 1 1 1v3l-3 2H7V9l3-2V6H5V4h6zM8 1.5c-1.736 0-3.369.676-4.596 1.904S1.5 6.264 1.5 8c0 1.736.676 3.369 1.904 4.596S6.264 14.5 8 14.5c1.736 0 3.369-.676 4.596-1.904S14.5 9.736 14.5 8c0-1.736-.676-3.369-1.904-4.596S9.736 1.5 8 1.5zM8 0a8 8 0 1 1 0 16A8 8 0 0 1 8 0z"/></symbol>
<symbol viewBox="0 0 16 16" aria-labelledby="nosi-icomoon-sad-title" id="si-icomoon-sad"><title id="nosi-icomoon-sad-title">icon sad</title><path d="M8 16A8 8 0 1 0 8 0a8 8 0 0 0 0 16zM8 1.5a6.5 6.5 0 1 1 0 13 6.5 6.5 0 0 1 0-13zM4 5a1 1 0 1 1 2 0 1 1 0 0 1-2 0zm6 0a1 1 0 1 1 2 0 1 1 0 0 1-2 0zm-5.002 7.199l-1.286-.772C4.586 9.973 6.179 9 8 9s3.413.973 4.288 2.427l-1.286.772C10.39 11.181 9.275 10.5 8 10.5s-2.389.681-3.002 1.699z"/></symbol>
<symbol viewBox="0 0 16 12" aria-labelledby="nusi-icomoon-share-title" id="si-icomoon-share"><title id="nusi-icomoon-share-title">icon share</title><path d="M4 8s.919-3 6-3v3l6-4-6-4v3C6 3 4 5.495 4 8zm7 2H2V4h1.967c.158-.186.327-.365.508-.534A6.933 6.933 0 0 1 6.914 2H0v10h13V7.803l-2 1.333V10z"/></symbol>
<symbol viewBox="0 0 15.572128295898438 16" aria-labelledby="oksi-icomoon-sort-alpha-asc-title" id="si-icomoon-sort-alpha-asc"><title id="oksi-icomoon-sort-alpha-asc-title">icon sort-alpha-asc</title><path d="M4.5 12V0h-2v12H0l3.5 3.5L7 12H4.5zm9.5 4h-4a.5.5 0 0 1-.416-.777L13.066 10H10a.5.5 0 0 1 0-1h4a.5.5 0 0 1 .416.777L10.934 15H14a.5.5 0 0 1 0 1zm1.447-9.724l-3-6a.5.5 0 0 0-.894 0l-3 6a.5.5 0 0 0 .895.447l.862-1.724h3.382l.862 1.724a.5.5 0 0 0 .895-.447zM10.809 4L12 1.618 13.191 4h-2.382z"/></symbol>
<symbol viewBox="0 0 15.572002410888672 16.0704345703125" aria-labelledby="olsi-icomoon-sort-alpha-desc-title" id="si-icomoon-sort-alpha-desc"><title id="olsi-icomoon-sort-alpha-desc-title">icon sort-alpha-desc</title><path d="M4.5 12V0h-2v12H0l3.5 3.5L7 12H4.5zM14 7h-4a.5.5 0 0 1-.416-.777L13.066 1H10a.5.5 0 0 1 0-1h4a.502.502 0 0 1 .416.777L10.934 6H14a.5.5 0 0 1 0 1zm1.447 8.276l-3-6a.5.5 0 0 0-.894 0l-3 6a.5.5 0 0 0 .895.447l.862-1.724h3.382l.862 1.724a.5.5 0 0 0 .895-.447zM10.809 13L12 10.618 13.191 13h-2.382z"/></symbol>
<symbol viewBox="0 0 15.5 15.5" aria-labelledby="omsi-icomoon-sort-amount-asc-title" id="si-icomoon-sort-amount-asc"><title id="omsi-icomoon-sort-amount-asc-title">icon sort-amount-asc</title><path d="M4.5 12V0h-2v12H0l3.5 3.5L7 12H4.5z"/><path d="M6.5 9h9v2h-9V9zm0-3h7v2h-7V6zm0-3h5v2h-5V3zm0-3h3v2h-3V0z"/></symbol>
<symbol viewBox="0 0 15.5 15.5" aria-labelledby="onsi-icomoon-sort-amount-desc-title" id="si-icomoon-sort-amount-desc"><title id="onsi-icomoon-sort-amount-desc-title">icon sort-amount-desc</title><path d="M4.5 12V0h-2v12H0l3.5 3.5L7 12H4.5zm2-12h9v2h-9V0zm0 3h7v2h-7V3zm0 3h5v2h-5V6z"/><path d="M6.5 9h3v2h-3V9z"/></symbol>
<symbol viewBox="0 0 14.5 16" aria-labelledby="oosi-icomoon-sort-numberic-desc-title" id="si-icomoon-sort-numberic-desc"><title id="oosi-icomoon-sort-numberic-desc-title">icon sort-numberic-desc</title><path d="M4.5 12V0h-2v12H0l3.5 3.5L7 12H4.5zm8.5 4a.5.5 0 0 1-.5-.5V10H12a.5.5 0 0 1 0-1h1a.5.5 0 0 1 .5.5v6a.5.5 0 0 1-.5.5zm1-16h-3a.5.5 0 0 0-.5.5v3a.5.5 0 0 0 .5.5h2.5v2H11a.5.5 0 0 0 0 1h3a.5.5 0 0 0 .5-.5v-6A.5.5 0 0 0 14 0zm-2.5 1h2v2h-2V1z"/></symbol>
<symbol viewBox="0 0 14.5 16" aria-labelledby="opsi-icomoon-sort-numeric-asc-title" id="si-icomoon-sort-numeric-asc"><title id="opsi-icomoon-sort-numeric-asc-title">icon sort-numeric-asc</title><path d="M4.5 12V0h-2v12H0l3.5 3.5L7 12H4.5zM13 7a.5.5 0 0 1-.5-.5V1H12a.5.5 0 0 1 0-1h1a.5.5 0 0 1 .5.5v6a.5.5 0 0 1-.5.5zm1 2h-3a.5.5 0 0 0-.5.5v3a.5.5 0 0 0 .5.5h2.5v2H11a.5.5 0 0 0 0 1h3a.5.5 0 0 0 .5-.5v-6A.5.5 0 0 0 14 9zm-2.5 1h2v2h-2v-2z"/></symbol>
<symbol viewBox="0 0 15.72883415222168 15.63484001159668" aria-labelledby="oysi-icomoon-spinner2-title" id="si-icomoon-spinner2"><title id="oysi-icomoon-spinner2-title">icon spinner2</title><path d="M15.71 8.363a7.917 7.917 0 0 0-2.43-5.568 7.776 7.776 0 0 0-8.512-1.536c-.923.405-1.758.992-2.45 1.712S1.083 4.545.723 5.468a7.531 7.531 0 0 0 .115 5.742c.392.892.96 1.7 1.658 2.368s1.523 1.195 2.416 1.543a7.286 7.286 0 0 0 2.799.493 7.157 7.157 0 0 0 6.526-4.547 6.98 6.98 0 0 0 .415-1.622l.059.002a1 1 0 0 0 .996-1.083h.004zm-1.588 2.655c-.367.83-.898 1.584-1.55 2.206s-1.422 1.112-2.254 1.434a6.759 6.759 0 0 1-2.608.454 6.676 6.676 0 0 1-4.685-2.065 6.597 6.597 0 0 1-1.38-2.173 6.514 6.514 0 0 1 .116-4.976c.342-.77.836-1.468 1.44-2.044s1.322-1.03 2.093-1.326c.77-.298 1.596-.438 2.416-.416s1.629.202 2.368.532c.74.329 1.41.805 1.963 1.387s.988 1.27 1.272 2.01a6.02 6.02 0 0 1 .397 2.32h.004a1 1 0 0 0 .888 1.078 6.872 6.872 0 0 1-.481 1.578z"/></symbol>
<symbol viewBox="0 0 14.757109642028809 15.484394073486328" aria-labelledby="pcsi-icomoon-spinner6-title" id="si-icomoon-spinner6"><title id="pcsi-icomoon-spinner6-title">icon spinner6</title><path d="M5.116 2.137a2 2 0 1 1 4 0 2 2 0 0 1-4 0zm6.36 6a1.641 1.641 0 0 1 3.281 0 1.641 1.641 0 0 1-3.282 0zM9.872 12.38a1.486 1.486 0 1 1 2.971 0 1.486 1.486 0 0 1-2.97 0zM5.77 14.137a1.347 1.347 0 1 1 2.693.001 1.347 1.347 0 0 1-2.693 0zM1.654 12.38a1.22 1.22 0 1 1 2.44 0 1.22 1.22 0 0 1-2.44 0zM.012 8.137a1.104 1.104 0 1 1 2.207 0 1.104 1.104 0 0 1-2.207 0zm1.861-4.243a1 1 0 0 1 2 0 1 1 0 0 1-2 0zm11.297 0a1.812 1.812 0 1 1-3.623 0 1.812 1.812 0 0 1 3.623 0z"/></symbol>
<symbol viewBox="0 0 16 15.215999603271484" aria-labelledby="pksi-icomoon-star-empty-title" id="si-icomoon-star-empty"><title id="pksi-icomoon-star-empty-title">icon star-empty</title><path d="M16 5.812l-5.528-.803L8 0 5.528 5.009 0 5.812l4 3.899-.944 5.505L8 12.617l4.944 2.599L12 9.711l4-3.899zm-8 5.569l-3.492 1.836.667-3.888L2.35 6.576l3.904-.567L8 2.472l1.746 3.537 3.904.567-2.825 2.753.667 3.888L8 11.381z"/></symbol>
<symbol viewBox="0 0 16 15.215999603271484" aria-labelledby="plsi-icomoon-star-full-title" id="si-icomoon-star-full"><title id="plsi-icomoon-star-full-title">icon star-full</title><path d="M16 5.812l-5.528-.803L8 0 5.528 5.009 0 5.812l4 3.899-.944 5.505L8 12.617l4.944 2.599L12 9.711l4-3.899z"/></symbol>
<symbol viewBox="0 0 16 15.215999603271484" aria-labelledby="pmsi-icomoon-star-half-title" id="si-icomoon-star-half"><title id="pmsi-icomoon-star-half-title">icon star-half</title><path d="M16 5.812l-5.528-.803L8 0 5.528 5.009 0 5.812l4 3.899-.944 5.505L8 12.617l4.944 2.599L12 9.711l4-3.899zm-8 5.569l-.015.008L8 2.471l1.746 3.537 3.904.567-2.825 2.753.667 3.888L8 11.38z"/></symbol>
<symbol viewBox="0 0 15 15" aria-labelledby="rgsi-icomoon-unlocked-title" id="si-icomoon-unlocked"><title id="rgsi-icomoon-unlocked-title">icon unlocked</title><path d="M12 0c1.654 0 3 1.346 3 3v3h-2V3c0-.551-.449-1-1-1h-2c-.551 0-1 .449-1 1v3h.25c.412 0 .75.338.75.75v7.5c0 .412-.338.75-.75.75H.75a.753.753 0 0 1-.75-.75v-7.5C0 6.338.338 6 .75 6H7V3c0-1.654 1.346-3 3-3h2z"/></symbol>
<symbol viewBox="0 0 14 13" aria-labelledby="rksi-icomoon-user-title" id="si-icomoon-user"><title id="rksi-icomoon-user-title">icon user</title><path d="M8 9.041v-.825c1.102-.621 2-2.168 2-3.716C10 2.015 10 0 7 0S4 2.015 4 4.5c0 1.548.898 3.095 2 3.716v.825C2.608 9.318 0 10.985 0 13h14c0-2.015-2.608-3.682-6-3.959z"/></symbol>
<symbol viewBox="0 0 16.761436462402344 16.762435913085938" aria-labelledby="svsi-icomoon-zoom-in-title" id="si-icomoon-zoom-in"><title id="svsi-icomoon-zoom-in-title">icon zoom-in</title><path d="M16.097 14.208l-3.79-3.223c-.392-.353-.81-.514-1.149-.499a6 6 0 1 0-.672.672c-.016.338.146.757.5 1.15l3.222 3.79c.552.612 1.453.664 2.003.114s.498-1.452-.115-2.003zm-9.504-3.616a4 4 0 1 1 0-8 4 4 0 0 1 0 8zm1-7h-2v2h-2v2h2v2h2v-2h2v-2h-2z"/></symbol>
<symbol viewBox="0 0 16.761436462402344 16.762435913085938" aria-labelledby="swsi-icomoon-zoom-out-title" id="si-icomoon-zoom-out"><title id="swsi-icomoon-zoom-out-title">icon zoom-out</title><path d="M16.097 14.208l-3.79-3.223c-.392-.353-.81-.514-1.149-.499a6 6 0 1 0-.672.672c-.016.338.146.757.5 1.15l3.222 3.79c.552.612 1.453.664 2.003.114s.498-1.452-.115-2.003zm-9.504-3.616a4 4 0 1 1 0-8 4 4 0 0 1 0 8zm-3-5h6v2h-6z"/></symbol>
  </defs>
</svg>
