<svg width="317" height="88" viewBox="0 0 317 88" version="1.1" xmlns="http://www.w3.org/2000/svg" xmlns:xlink="http://www.w3.org/1999/xlink">
<title>Group 2.1</title>
<desc>Created using Figma</desc>
<g id="Canvas" transform="translate(-1042 748)">
<g id="Group 2.1">
<g id="Ellipse">
<use xlink:href="#path0_fill" transform="translate(1156 -748)"/>
<use xlink:href="#path0_fill" transform="translate(1156 -748)" fill="url(#paint1_linear)"/>
</g>
<g id="album collector" filter="url(#filter0_d)">
<use xlink:href="#path1_fill" transform="translate(1046 -726.474)" fill="#FFFFFF"/>
<use xlink:href="#path2_fill" transform="translate(1046 -726.474)" fill="#FFFFFF"/>
<use xlink:href="#path3_fill" transform="translate(1046 -726.474)" fill="#FFFFFF"/>
<use xlink:href="#path4_fill" transform="translate(1046 -726.474)" fill="#FFFFFF"/>
<use xlink:href="#path5_fill" transform="translate(1046 -726.474)" fill="#FFFFFF"/>
<use xlink:href="#path6_fill" transform="translate(1046 -726.474)" fill="#FFFFFF"/>
<use xlink:href="#path7_fill" transform="translate(1046 -726.474)" fill="#FFFFFF"/>
<use xlink:href="#path8_fill" transform="translate(1046 -726.474)" fill="#FFFFFF"/>
<use xlink:href="#path9_fill" transform="translate(1046 -726.474)" fill="#FFFFFF"/>
<use xlink:href="#path10_fill" transform="translate(1046 -726.474)" fill="#FFFFFF"/>
<use xlink:href="#path11_fill" transform="translate(1046 -726.474)" fill="#FFFFFF"/>
<use xlink:href="#path12_fill" transform="translate(1046 -726.474)" fill="#FFFFFF"/>
<use xlink:href="#path13_fill" transform="translate(1046 -726.474)" fill="#FFFFFF"/>
<use xlink:href="#path14_fill" transform="translate(1046 -726.474)" fill="#FFFFFF"/>
</g>
<g id="Rectangle">
<use xlink:href="#path15_fill" transform="translate(1072 -686.231)" fill="#FFFFFF"/>
</g>
</g>
</g>
<defs>
<filter id="filter0_d" filterUnits="userSpaceOnUse" x="1042" y="-727" width="317" height="39" color-interpolation-filters="sRGB">
<feFlood flood-opacity="0" result="BackgroundImageFix"/>
<feColorMatrix in="SourceAlpha" type="matrix" values="0 0 0 0 0 0 0 0 0 0 0 0 0 0 0 0 0 0 255 0"/>
<feOffset dx="0" dy="4"/>
<feGaussianBlur stdDeviation="2"/>
<feColorMatrix type="matrix" values="0 0 0 0 0 0 0 0 0 0 0 0 0 0 0 0 0 0 0.25 0"/>
<feBlend mode="normal" in2="BackgroundImageFix" result="effect1_dropShadow"/>
<feBlend mode="normal" in="SourceGraphic" in2="effect1_dropShadow" result="shape"/>
</filter>
<linearGradient id="paint1_linear" x1="0" y1="0" x2="1" y2="0" gradientUnits="userSpaceOnUse" gradientTransform="matrix(5.4019e-15 88 -88.2197 5.38845e-15 88.2197 0)">
<stop offset="0"/>
<stop offset="1" stop-color="#FFFFFF" stop-opacity="0"/>
</linearGradient>
<path id="path0_fill" d="M 88.2197 44C 88.2197 68.3005 68.4711 88 44.1099 88C 19.7487 88 0 68.3005 0 44C 0 19.6995 19.7487 0 44.1099 0C 68.4711 0 88.2197 19.6995 88.2197 44Z"/>
<path id="path1_fill" d="M 1.79154 28.0246C 1.16721 27.3206 0.705757 26.4135 0.407167 25.3034C 0.135722 24.1932 0 22.7311 0 20.9169C 0 19.1028 0.312162 17.3698 0.936486 15.7182C 1.56081 14.0665 2.44301 12.6449 3.58308 11.4535C 5.91751 8.96246 9.01198 7.71693 12.8665 7.71693C 14.2509 7.71693 15.4452 7.94708 16.4496 8.40739L 23.4122 7.71693L 20.3991 23.5569C 20.3177 23.8818 20.277 24.3422 20.277 24.9378C 20.277 25.5335 20.4534 26.0209 20.8063 26.4C 21.1863 26.7791 21.6478 26.9957 22.1906 27.0498C 21.9192 27.9705 21.2813 28.7015 20.277 29.2431C 19.2998 29.7846 18.2547 30.0554 17.1418 30.0554C 16.0288 30.0554 15.0924 29.8388 14.3323 29.4055C 13.5994 28.9994 13.1244 28.4443 12.9072 27.7403C 12.4729 28.4172 11.7943 28.9723 10.8714 29.4055C 9.94847 29.8388 8.86269 30.0554 7.61404 30.0554C 6.39254 30.0554 5.27961 29.8929 4.27526 29.568C 3.27092 29.2431 2.44301 28.7286 1.79154 28.0246ZM 10.3828 11.5348C 10.0842 12.0222 9.79917 12.6855 9.52773 13.5249C 9.25628 14.3372 8.88983 15.8535 8.42838 18.0738C 7.99406 20.2671 7.77691 22.1489 7.77691 23.7194C 7.77691 25.2898 7.89906 26.3052 8.14336 26.7655C 8.38766 27.2258 8.72697 27.456 9.16128 27.456C 10.0299 27.456 10.7764 27.0498 11.4007 26.2375C 12.0522 25.3982 12.5001 24.2474 12.7444 22.7852L 14.9023 10.8849C 14.3323 10.3975 13.708 10.1538 13.0294 10.1538C 12.3779 10.1538 11.8486 10.2622 11.4414 10.4788C 11.0614 10.6954 10.7085 11.0474 10.3828 11.5348Z"/>
<path id="path2_fill" d="M 35.3393 27.0092C 34.4978 29.04 32.7334 30.0554 30.0461 30.0554C 28.6889 30.0554 27.576 29.5815 26.7073 28.6338C 26.0016 27.8486 25.6487 27.0092 25.6487 26.1157C 25.6487 24.0849 26.1237 20.8492 27.0738 16.4086L 30.0461 0.812309L 38.3116 0L 34.3621 20.5514C 33.9007 22.5551 33.6699 23.9089 33.6699 24.6129C 33.6699 26.1563 34.2264 26.9551 35.3393 27.0092Z"/>
<path id="path3_fill" d="M 38.2798 27.2935L 43.3287 0.812309L 51.5942 0L 50.332 6.21416C 50.0334 7.48677 49.6941 8.56985 49.3141 9.46339C 49.9112 8.70523 50.8613 8.17723 52.1642 7.87939C 52.5443 7.77108 52.965 7.71693 53.4265 7.71693C 55.9509 7.71693 57.9053 8.48862 59.2897 10.032C 60.6741 11.5483 61.3662 13.7822 61.3662 16.7335C 61.3662 20.5785 60.2669 23.7058 58.0682 26.1157C 55.7066 28.7422 52.3814 30.0554 48.0926 30.0554C 45.1338 30.0554 42.5415 29.568 40.3157 28.5932C 39.5285 28.2412 38.8499 27.808 38.2798 27.2935ZM 46.4639 26.928C 47.0339 27.4154 47.6718 27.6591 48.3776 27.6591C 49.0833 27.6591 49.6398 27.5237 50.047 27.2529C 50.4541 26.9822 50.807 26.576 51.1056 26.0345C 51.9199 24.5723 52.6528 21.6074 53.3043 17.1397C 53.4943 15.8671 53.5893 14.5945 53.5893 13.3218C 53.5893 12.0492 53.44 11.2098 53.1414 10.8037C 52.87 10.3975 52.4628 10.1945 51.92 10.1945C 50.2641 10.1945 49.1648 11.8055 48.6219 15.0277L 46.4639 26.928Z"/>
<path id="path4_fill" d="M 76.8898 27.5372C 75.5869 29.216 73.3203 30.0554 70.0901 30.0554C 68.4072 30.0554 66.9549 29.5545 65.7334 28.5526C 64.5119 27.5237 63.9012 26.2782 63.9012 24.816C 63.9012 24.0037 63.9419 23.3945 64.0233 22.9883L 66.7514 8.52923L 75.0169 7.71693L 72.0445 23.3945C 71.936 23.9902 71.8817 24.464 71.8817 24.816C 71.8817 26.3865 72.3567 27.1717 73.3068 27.1717C 74.3654 27.1717 75.2747 26.4542 76.0348 25.0191C 76.2791 24.5588 76.4555 24.0308 76.5641 23.4351L 79.455 8.52923L 87.4762 7.71693L 84.4632 23.5569C 84.3817 23.9631 84.341 24.3828 84.341 24.816C 84.341 25.2492 84.4632 25.7095 84.7075 26.1969C 84.9518 26.6572 85.4675 26.9415 86.2547 27.0498C 86.0918 27.6997 85.7254 28.2412 85.1553 28.6745C 83.961 29.5951 82.7123 30.0554 81.4094 30.0554C 80.1336 30.0554 79.1157 29.8252 78.3556 29.3649C 77.5956 28.9046 77.107 28.2954 76.8898 27.5372Z"/>
<path id="path5_fill" d="M 118.981 30.0554C 115.697 30.0554 114.055 28.7828 114.055 26.2375C 114.055 25.1274 114.285 23.5028 114.747 21.3637C 115.235 19.1975 115.561 17.6812 115.724 16.8148C 116.104 14.8382 116.294 13.5385 116.294 12.9157C 116.294 11.5348 115.778 10.8443 114.747 10.8443C 114.068 10.8443 113.403 11.3182 112.752 12.2658C 112.1 13.1865 111.625 14.5809 111.327 16.4492L 108.802 29.2431L 100.862 30.0554L 103.061 19.008C 103.305 17.7895 103.536 16.4898 103.753 15.1089C 103.971 13.728 104.079 12.9292 104.079 12.7126C 104.079 11.4671 103.618 10.8443 102.695 10.8443C 102.07 10.8443 101.419 11.3046 100.74 12.2252C 100.062 13.1458 99.5324 14.5538 99.1524 16.4492L 96.6687 29.2431L 88.6474 30.0554L 92.9227 8.52923L 99.5595 7.71693L 98.8674 11.8191C 99.5731 10.3569 100.577 9.31446 101.88 8.6917C 103.183 8.04185 104.853 7.71693 106.889 7.71693C 108.056 7.71693 109.019 8.00123 109.779 8.56985C 110.539 9.13846 111.042 9.88308 111.286 10.8037C 111.747 9.856 112.562 9.11139 113.729 8.56985C 114.923 8.00123 116.24 7.71693 117.679 7.71693C 119.144 7.71693 120.23 7.87939 120.936 8.20431C 121.669 8.50215 122.252 8.90831 122.687 9.42277C 123.42 10.3705 123.786 11.7108 123.786 13.4437C 123.786 15.1495 123.42 17.776 122.687 21.3231C 122.307 23.056 122.117 24.2474 122.117 24.8972C 122.117 25.52 122.293 26.0209 122.646 26.4C 123.026 26.7791 123.487 26.9957 124.03 27.0498C 123.759 27.9705 123.148 28.7015 122.198 29.2431C 121.275 29.7846 120.203 30.0554 118.981 30.0554Z"/>
<path id="path6_fill" d="M 155.543 12.3471C 155.543 13.4843 155.068 14.4049 154.118 15.1089C 153.168 15.8129 151.919 16.1649 150.372 16.1649C 149.721 16.1649 149.205 16.0702 148.825 15.8806C 149.124 15.1766 149.314 14.3914 149.395 13.5249C 149.504 12.6314 149.558 12.0628 149.558 11.8191C 149.558 10.6818 149.164 10.1132 148.377 10.1132C 147.834 10.1132 147.251 10.4517 146.626 11.1286C 146.029 11.8055 145.473 12.672 144.957 13.728C 143.817 16.1649 143.247 18.6154 143.247 21.0794C 143.247 22.4332 143.505 23.4215 144.02 24.0443C 144.536 24.64 145.364 24.9378 146.504 24.9378C 148.078 24.9378 149.49 24.288 150.739 22.9883C 151.092 22.5822 151.363 22.1489 151.553 21.6886C 152.584 22.2302 153.1 23.2455 153.1 24.7348C 153.1 26.2511 152.259 27.5102 150.576 28.512C 148.839 29.5409 146.586 30.0554 143.817 30.0554C 138.306 30.0554 135.551 27.1446 135.551 21.3231C 135.551 17.072 136.759 13.728 139.175 11.2911C 141.509 8.90831 144.821 7.71693 149.11 7.71693C 153.399 7.71693 155.543 9.26031 155.543 12.3471Z"/>
<path id="path7_fill" d="M 165.502 30.0554C 159.53 30.0554 156.544 27.2529 156.544 21.648C 156.544 17.6677 157.643 14.3914 159.842 11.8191C 162.176 9.08431 165.366 7.71693 169.41 7.71693C 172.342 7.71693 174.554 8.39385 176.047 9.74769C 177.54 11.1015 178.287 13.2 178.287 16.0431C 178.287 20.3754 177.119 23.8006 174.785 26.3188C 172.505 28.8098 169.41 30.0554 165.502 30.0554ZM 166.56 12.3877C 166.235 13.1188 165.936 14.0394 165.665 15.1495C 165.42 16.2326 165.135 17.6406 164.809 19.3735C 164.484 21.1065 164.321 23.0425 164.321 25.1815C 164.321 25.8855 164.429 26.4677 164.647 26.928C 164.891 27.3883 165.325 27.6185 165.95 27.6185C 166.574 27.6185 167.076 27.4695 167.456 27.1717C 167.863 26.8738 168.216 26.3729 168.515 25.6689C 169.058 24.4234 169.546 22.6498 169.98 20.3483C 170.415 18.0197 170.646 16.3545 170.673 15.3526C 170.727 14.3508 170.754 13.4843 170.754 12.7532C 170.754 11.9951 170.646 11.3723 170.428 10.8849C 170.211 10.3975 169.79 10.1538 169.166 10.1538C 168.569 10.1538 168.067 10.3434 167.66 10.7225C 167.252 11.1015 166.886 11.6566 166.56 12.3877Z"/>
<path id="path8_fill" d="M 190.413 27.0092C 189.572 29.04 187.807 30.0554 185.12 30.0554C 183.763 30.0554 182.65 29.5815 181.781 28.6338C 181.075 27.8486 180.722 27.0092 180.722 26.1157C 180.722 24.0849 181.197 20.8492 182.147 16.4086L 185.12 0.812309L 193.385 0L 189.436 20.5514C 188.974 22.5551 188.744 23.9089 188.744 24.6129C 188.744 26.1563 189.3 26.9551 190.413 27.0092Z"/>
<path id="path9_fill" d="M 203.614 27.0092C 202.773 29.04 201.008 30.0554 198.321 30.0554C 196.964 30.0554 195.851 29.5815 194.982 28.6338C 194.276 27.8486 193.924 27.0092 193.924 26.1157C 193.924 24.0849 194.399 20.8492 195.349 16.4086L 198.321 0.812309L 206.586 0L 202.637 20.5514C 202.175 22.5551 201.945 23.9089 201.945 24.6129C 201.945 26.1563 202.501 26.9551 203.614 27.0092Z"/>
<path id="path10_fill" d="M 223.574 22.3791C 224.253 22.8394 224.592 23.584 224.592 24.6129C 224.592 25.6148 224.334 26.4406 223.819 27.0905C 223.303 27.7403 222.624 28.2818 221.783 28.7151C 220.045 29.6086 218.24 30.0554 216.367 30.0554C 214.494 30.0554 213.001 29.8523 211.889 29.4462C 210.803 29.04 209.893 28.4578 209.161 27.6997C 207.722 26.2646 207.003 24.2338 207.003 21.6074C 207.003 17.5188 208.115 14.2289 210.341 11.7378C 212.73 9.05723 216.001 7.71693 220.154 7.71693C 222.733 7.71693 224.66 8.25846 225.936 9.34154C 226.886 10.1538 227.361 11.2234 227.361 12.5502C 227.361 17.3157 223.235 19.6985 214.983 19.6985C 214.874 20.4025 214.82 21.0523 214.82 21.648C 214.82 22.8935 215.092 23.76 215.634 24.2474C 216.205 24.7077 217.005 24.9378 218.037 24.9378C 219.068 24.9378 220.127 24.7077 221.213 24.2474C 222.326 23.76 223.113 23.1372 223.574 22.3791ZM 215.268 17.952C 217.195 17.952 218.715 17.3563 219.828 16.1649C 220.941 15.0277 221.498 13.552 221.498 11.7378C 221.498 11.1151 221.376 10.6412 221.131 10.3163C 220.914 9.96431 220.575 9.78831 220.113 9.78831C 219.652 9.78831 219.218 9.88308 218.81 10.0726C 218.43 10.2351 218.037 10.6142 217.63 11.2098C 216.625 12.5637 215.838 14.8111 215.268 17.952Z"/>
<path id="path11_fill" d="M 248.746 12.3471C 248.746 13.4843 248.271 14.4049 247.321 15.1089C 246.371 15.8129 245.123 16.1649 243.575 16.1649C 242.924 16.1649 242.408 16.0702 242.028 15.8806C 242.327 15.1766 242.517 14.3914 242.598 13.5249C 242.707 12.6314 242.761 12.0628 242.761 11.8191C 242.761 10.6818 242.368 10.1132 241.58 10.1132C 241.037 10.1132 240.454 10.4517 239.83 11.1286C 239.232 11.8055 238.676 12.672 238.16 13.728C 237.02 16.1649 236.45 18.6154 236.45 21.0794C 236.45 22.4332 236.708 23.4215 237.224 24.0443C 237.739 24.64 238.567 24.9378 239.707 24.9378C 241.282 24.9378 242.693 24.288 243.942 22.9883C 244.295 22.5822 244.566 22.1489 244.756 21.6886C 245.788 22.2302 246.303 23.2455 246.303 24.7348C 246.303 26.2511 245.462 27.5102 243.779 28.512C 242.042 29.5409 239.789 30.0554 237.02 30.0554C 231.51 30.0554 228.755 27.1446 228.755 21.3231C 228.755 17.072 229.962 13.728 232.378 11.2911C 234.713 8.90831 238.024 7.71693 242.313 7.71693C 246.602 7.71693 248.746 9.26031 248.746 12.3471Z"/>
<path id="path12_fill" d="M 250.48 25.1815C 250.48 24.4505 250.67 23.1643 251.05 21.3231L 253.208 10.3569L 250.806 10.3569L 250.969 9.13846C 254.226 8.16369 257.429 6.48492 260.578 4.10215L 262.532 4.10215L 261.555 8.52923L 264.731 8.52923L 264.365 10.3569L 261.229 10.3569L 259.153 21.3231C 258.8 23.0018 258.623 24.1255 258.623 24.6942C 258.623 25.9938 259.194 26.7791 260.334 27.0498C 260.062 27.9705 259.438 28.7015 258.461 29.2431C 257.483 29.7846 256.303 30.0554 254.918 30.0554C 253.534 30.0554 252.448 29.6222 251.661 28.7557C 250.874 27.8892 250.48 26.6978 250.48 25.1815Z"/>
<path id="path13_fill" d="M 273.258 30.0554C 267.286 30.0554 264.3 27.2529 264.3 21.648C 264.3 17.6677 265.4 14.3914 267.598 11.8191C 269.933 9.08431 273.122 7.71693 277.167 7.71693C 280.098 7.71693 282.311 8.39385 283.804 9.74769C 285.297 11.1015 286.043 13.2 286.043 16.0431C 286.043 20.3754 284.876 23.8006 282.541 26.3188C 280.261 28.8098 277.167 30.0554 273.258 30.0554ZM 274.317 12.3877C 273.991 13.1188 273.692 14.0394 273.421 15.1495C 273.177 16.2326 272.892 17.6406 272.566 19.3735C 272.24 21.1065 272.077 23.0425 272.077 25.1815C 272.077 25.8855 272.186 26.4677 272.403 26.928C 272.647 27.3883 273.082 27.6185 273.706 27.6185C 274.33 27.6185 274.832 27.4695 275.212 27.1717C 275.62 26.8738 275.972 26.3729 276.271 25.6689C 276.814 24.4234 277.303 22.6498 277.737 20.3483C 278.171 18.0197 278.402 16.3545 278.429 15.3526C 278.483 14.3508 278.51 13.4843 278.51 12.7532C 278.51 11.9951 278.402 11.3723 278.185 10.8849C 277.968 10.3975 277.547 10.1538 276.922 10.1538C 276.325 10.1538 275.823 10.3434 275.416 10.7225C 275.009 11.1015 274.642 11.6566 274.317 12.3877Z"/>
<path id="path14_fill" d="M 301.182 17.8302C 302.16 16.0972 302.648 14.3508 302.648 12.5908C 302.648 11.4265 302.227 10.8443 301.386 10.8443C 300.734 10.8443 300.069 11.3994 299.391 12.5095C 298.685 13.6197 298.224 14.8923 298.006 16.3274L 295.889 29.2431L 287.461 30.0554L 291.614 8.52923L 298.332 7.71693L 297.599 11.8191C 298.929 9.08431 301.087 7.71693 304.073 7.71693C 305.648 7.71693 306.856 8.12308 307.697 8.93539C 308.566 9.74769 309 10.9932 309 12.672C 309 14.3237 308.444 15.6775 307.331 16.7335C 306.245 17.7895 304.765 18.3175 302.892 18.3175C 302.078 18.3175 301.508 18.1551 301.182 17.8302Z"/>
<path id="path15_fill" d="M 0 0L 257.873 0L 257.873 8.46154L 0 8.46154L 0 0Z"/>
</defs>
</svg>
