<svg width="147" height="40" viewBox="0 0 147 40" version="1.1" xmlns="http://www.w3.org/2000/svg" xmlns:xlink="http://www.w3.org/1999/xlink">
<title>Group 2.1</title>
<desc>Created using Figma</desc>
<g id="Canvas" transform="translate(-577 768)">
<g id="Group 2.1">
<g id="Ellipse">
<use xlink:href="#path0_fill" transform="translate(630.506 -768)"/>
<use xlink:href="#path0_fill" transform="translate(630.506 -768)" fill="url(#paint1_linear)"/>
</g>
<g id="album collector" filter="url(#filter0_d)">
<use xlink:href="#path1_fill" transform="translate(581 -758.215)" fill="#FFFFFF"/>
<use xlink:href="#path2_fill" transform="translate(581 -758.215)" fill="#FFFFFF"/>
<use xlink:href="#path3_fill" transform="translate(581 -758.215)" fill="#FFFFFF"/>
<use xlink:href="#path4_fill" transform="translate(581 -758.215)" fill="#FFFFFF"/>
<use xlink:href="#path5_fill" transform="translate(581 -758.215)" fill="#FFFFFF"/>
<use xlink:href="#path6_fill" transform="translate(581 -758.215)" fill="#FFFFFF"/>
<use xlink:href="#path7_fill" transform="translate(581 -758.215)" fill="#FFFFFF"/>
<use xlink:href="#path8_fill" transform="translate(581 -758.215)" fill="#FFFFFF"/>
<use xlink:href="#path9_fill" transform="translate(581 -758.215)" fill="#FFFFFF"/>
<use xlink:href="#path10_fill" transform="translate(581 -758.215)" fill="#FFFFFF"/>
<use xlink:href="#path11_fill" transform="translate(581 -758.215)" fill="#FFFFFF"/>
<use xlink:href="#path12_fill" transform="translate(581 -758.215)" fill="#FFFFFF"/>
<use xlink:href="#path13_fill" transform="translate(581 -758.215)" fill="#FFFFFF"/>
<use xlink:href="#path14_fill" transform="translate(581 -758.215)" fill="#FFFFFF"/>
</g>
<g id="Rectangle">
<use xlink:href="#path15_fill" transform="translate(583.19 -739.923)" fill="#FFFFFF"/>
</g>
</g>
</g>
<defs>
<filter id="filter0_d" filterUnits="userSpaceOnUse" x="577" y="-759" width="147" height="23" color-interpolation-filters="sRGB">
<feFlood flood-opacity="0" result="BackgroundImageFix"/>
<feColorMatrix in="SourceAlpha" type="matrix" values="0 0 0 0 0 0 0 0 0 0 0 0 0 0 0 0 0 0 255 0"/>
<feOffset dx="0" dy="4"/>
<feGaussianBlur stdDeviation="2"/>
<feColorMatrix type="matrix" values="0 0 0 0 0 0 0 0 0 0 0 0 0 0 0 0 0 0 0.25 0"/>
<feBlend mode="normal" in2="BackgroundImageFix" result="effect1_dropShadow"/>
<feBlend mode="normal" in="SourceGraphic" in2="effect1_dropShadow" result="shape"/>
</filter>
<linearGradient id="paint1_linear" x1="0" y1="0" x2="1" y2="0" gradientUnits="userSpaceOnUse" gradientTransform="matrix(2.42998e-15 40 -39.6846 2.44929e-15 39.6846 0)">
<stop offset="0"/>
<stop offset="1" stop-color="#FFFFFF" stop-opacity="0"/>
</linearGradient>
<path id="path0_fill" d="M 39.6846 20C 39.6846 31.0457 30.8009 40 19.8423 40C 8.8837 40 0 31.0457 0 20C 0 8.9543 8.8837 0 19.8423 0C 30.8009 0 39.6846 8.9543 39.6846 20Z"/>
<path id="path1_fill" d="M 0.805902 12.7385C 0.525058 12.4185 0.317477 12.0062 0.183159 11.5015C 0.061053 10.9969 0 10.3323 0 9.50769C 0 8.68308 0.140422 7.89538 0.421267 7.14462C 0.702112 6.39385 1.09896 5.74769 1.61181 5.20615C 2.66192 4.07385 4.05393 3.50769 5.78785 3.50769C 6.41059 3.50769 6.94786 3.61231 7.39965 3.82154L 10.5317 3.50769L 9.1763 10.7077C 9.13967 10.8554 9.12135 11.0646 9.12135 11.3354C 9.12135 11.6062 9.20072 11.8277 9.35946 12C 9.53041 12.1723 9.73799 12.2708 9.9822 12.2954C 9.8601 12.7138 9.57314 13.0462 9.12135 13.2923C 8.68177 13.5385 8.21166 13.6615 7.71102 13.6615C 7.21039 13.6615 6.78912 13.5631 6.44722 13.3662C 6.11753 13.1815 5.90385 12.9292 5.80616 12.6092C 5.61079 12.9169 5.30552 13.1692 4.89036 13.3662C 4.4752 13.5631 3.98678 13.6615 3.42509 13.6615C 2.87561 13.6615 2.37497 13.5877 1.92318 13.44C 1.47138 13.2923 1.09896 13.0585 0.805902 12.7385ZM 4.67057 5.24308C 4.53625 5.46462 4.40804 5.76615 4.28594 6.14769C 4.16383 6.51692 3.99899 7.20615 3.79141 8.21539C 3.59603 9.21231 3.49835 10.0677 3.49835 10.7815C 3.49835 11.4954 3.5533 11.9569 3.66319 12.1662C 3.77309 12.3754 3.92572 12.48 4.12109 12.48C 4.51183 12.48 4.84763 12.2954 5.12847 11.9262C 5.42153 11.5446 5.623 11.0215 5.7329 10.3569L 6.70364 4.94769C 6.44722 4.72615 6.16637 4.61539 5.86111 4.61539C 5.56805 4.61539 5.32995 4.66462 5.14679 4.76308C 4.97584 4.86154 4.8171 5.02154 4.67057 5.24308Z"/>
<path id="path2_fill" d="M 15.897 12.2769C 15.5184 13.2 14.7247 13.6615 13.5159 13.6615C 12.9054 13.6615 12.4047 13.4462 12.014 13.0154C 11.6965 12.6585 11.5378 12.2769 11.5378 11.8708C 11.5378 10.9477 11.7515 9.47692 12.1788 7.45846L 13.5159 0.369232L 17.234 0L 15.4574 9.34154C 15.2498 10.2523 15.146 10.8677 15.146 11.1877C 15.146 11.8892 15.3963 12.2523 15.897 12.2769Z"/>
<path id="path3_fill" d="M 17.2197 12.4062L 19.4909 0.369232L 23.209 0L 22.6413 2.82462C 22.5069 3.40308 22.3543 3.89539 22.1834 4.30154C 22.452 3.95692 22.8794 3.71692 23.4655 3.58154C 23.6364 3.53231 23.8257 3.50769 24.0333 3.50769C 25.1689 3.50769 26.048 3.85846 26.6708 4.56C 27.2935 5.24923 27.6049 6.26462 27.6049 7.60615C 27.6049 9.35385 27.1103 10.7754 26.1213 11.8708C 25.059 13.0646 23.5632 13.6615 21.6339 13.6615C 20.3029 13.6615 19.1368 13.44 18.1355 12.9969C 17.7814 12.8369 17.4762 12.64 17.2197 12.4062ZM 20.9012 12.24C 21.1577 12.4615 21.4446 12.5723 21.7621 12.5723C 22.0796 12.5723 22.3299 12.5108 22.513 12.3877C 22.6962 12.2646 22.8549 12.08 22.9893 11.8338C 23.3556 11.1692 23.6853 9.82154 23.9783 7.79077C 24.0638 7.21231 24.1065 6.63385 24.1065 6.05539C 24.1065 5.47692 24.0394 5.09539 23.9051 4.91077C 23.7829 4.72615 23.5998 4.63385 23.3556 4.63385C 22.6107 4.63385 22.1162 5.36615 21.872 6.83077L 20.9012 12.24Z"/>
<path id="path4_fill" d="M 34.588 12.5169C 34.0019 13.28 32.9823 13.6615 31.5292 13.6615C 30.7722 13.6615 30.1189 13.4338 29.5694 12.9785C 29.0199 12.5108 28.7452 11.9446 28.7452 11.28C 28.7452 10.9108 28.7635 10.6338 28.8001 10.4492L 30.0273 3.87692L 33.7454 3.50769L 32.4084 10.6338C 32.3595 10.9046 32.3351 11.12 32.3351 11.28C 32.3351 11.9938 32.5488 12.3508 32.9762 12.3508C 33.4524 12.3508 33.8615 12.0246 34.2033 11.3723C 34.3132 11.1631 34.3926 10.9231 34.4415 10.6523L 35.7419 3.87692L 39.3501 3.50769L 37.9948 10.7077C 37.9581 10.8923 37.9398 11.0831 37.9398 11.28C 37.9398 11.4769 37.9948 11.6862 38.1047 11.9077C 38.2145 12.1169 38.4465 12.2462 38.8007 12.2954C 38.7274 12.5908 38.5625 12.8369 38.3061 13.0338C 37.7689 13.4523 37.2072 13.6615 36.6211 13.6615C 36.0472 13.6615 35.5893 13.5569 35.2474 13.3477C 34.9055 13.1385 34.6857 12.8615 34.588 12.5169Z"/>
<path id="path5_fill" d="M 53.5224 13.6615C 52.0449 13.6615 51.3062 13.0831 51.3062 11.9262C 51.3062 11.4215 51.41 10.6831 51.6175 9.71077C 51.8373 8.72615 51.9839 8.03692 52.0571 7.64308C 52.2281 6.74462 52.3135 6.15385 52.3135 5.87077C 52.3135 5.24308 52.0815 4.92923 51.6175 4.92923C 51.3123 4.92923 51.0131 5.14462 50.7201 5.57538C 50.427 5.99385 50.2133 6.62769 50.079 7.47692L 48.9434 13.2923L 45.3718 13.6615L 46.3609 8.64C 46.4708 8.08615 46.5745 7.49539 46.6722 6.86769C 46.7699 6.24 46.8188 5.87692 46.8188 5.77846C 46.8188 5.21231 46.6112 4.92923 46.196 4.92923C 45.9152 4.92923 45.6221 5.13846 45.3168 5.55692C 45.0116 5.97539 44.7735 6.61539 44.6025 7.47692L 43.4853 13.2923L 39.877 13.6615L 41.8002 3.87692L 44.7857 3.50769L 44.4743 5.37231C 44.7918 4.70769 45.2436 4.23385 45.8297 3.95077C 46.4158 3.65539 47.1668 3.50769 48.0826 3.50769C 48.6076 3.50769 49.0411 3.63692 49.383 3.89539C 49.7249 4.15385 49.9508 4.49231 50.0607 4.91077C 50.2683 4.48 50.6346 4.14154 51.1596 3.89539C 51.6969 3.63692 52.2891 3.50769 52.9363 3.50769C 53.5957 3.50769 54.0841 3.58154 54.4016 3.72923C 54.7313 3.86462 54.9938 4.04923 55.1892 4.28308C 55.5188 4.71385 55.6837 5.32308 55.6837 6.11077C 55.6837 6.88615 55.5188 8.08 55.1892 9.69231C 55.0182 10.48 54.9327 11.0215 54.9327 11.3169C 54.9327 11.6 55.0121 11.8277 55.1708 12C 55.3418 12.1723 55.5494 12.2708 55.7936 12.2954C 55.6715 12.7138 55.3967 13.0462 54.9694 13.2923C 54.5542 13.5385 54.0719 13.6615 53.5224 13.6615Z"/>
<path id="path6_fill" d="M 69.9693 5.61231C 69.9693 6.12923 69.7556 6.54769 69.3282 6.86769C 68.9008 7.18769 68.3392 7.34769 67.6431 7.34769C 67.3501 7.34769 67.1181 7.30462 66.9471 7.21846C 67.0815 6.89846 67.1669 6.54154 67.2036 6.14769C 67.2524 5.74154 67.2768 5.48308 67.2768 5.37231C 67.2768 4.85539 67.0998 4.59692 66.7457 4.59692C 66.5015 4.59692 66.2389 4.75077 65.9581 5.05846C 65.6894 5.36615 65.4391 5.76 65.2071 6.24C 64.6943 7.34769 64.4379 8.46154 64.4379 9.58154C 64.4379 10.1969 64.5539 10.6462 64.7859 10.9292C 65.0179 11.2 65.3903 11.3354 65.9031 11.3354C 66.6113 11.3354 67.2463 11.04 67.808 10.4492C 67.9667 10.2646 68.0888 10.0677 68.1743 9.85846C 68.6383 10.1046 68.8703 10.5662 68.8703 11.2431C 68.8703 11.9323 68.4918 12.5046 67.7347 12.96C 66.9532 13.4277 65.9398 13.6615 64.6943 13.6615C 62.2155 13.6615 60.9761 12.3385 60.9761 9.69231C 60.9761 7.76 61.5195 6.24 62.6063 5.13231C 63.6564 4.04923 65.1461 3.50769 67.0754 3.50769C 69.0046 3.50769 69.9693 4.20923 69.9693 5.61231Z"/>
<path id="path7_fill" d="M 74.449 13.6615C 71.7626 13.6615 70.4194 12.3877 70.4194 9.84C 70.4194 8.03077 70.914 6.54154 71.903 5.37231C 72.9532 4.12923 74.3879 3.50769 76.2073 3.50769C 77.526 3.50769 78.5212 3.81539 79.1928 4.43077C 79.8644 5.04615 80.2002 6 80.2002 7.29231C 80.2002 9.26154 79.6751 10.8185 78.625 11.9631C 77.5993 13.0954 76.2073 13.6615 74.449 13.6615ZM 74.9252 5.63077C 74.7786 5.96308 74.6443 6.38154 74.5222 6.88615C 74.4123 7.37846 74.2841 8.01846 74.1376 8.80615C 73.9911 9.59385 73.9178 10.4738 73.9178 11.4462C 73.9178 11.7662 73.9666 12.0308 74.0643 12.24C 74.1742 12.4492 74.3696 12.5538 74.6504 12.5538C 74.9313 12.5538 75.1572 12.4862 75.3281 12.3508C 75.5113 12.2154 75.67 11.9877 75.8043 11.6677C 76.0486 11.1015 76.2683 10.2954 76.4637 9.24923C 76.6591 8.19077 76.7629 7.43385 76.7751 6.97846C 76.7995 6.52308 76.8117 6.12923 76.8117 5.79692C 76.8117 5.45231 76.7629 5.16923 76.6652 4.94769C 76.5675 4.72615 76.3782 4.61539 76.0974 4.61539C 75.8288 4.61539 75.6029 4.70154 75.4197 4.87385C 75.2365 5.04615 75.0717 5.29846 74.9252 5.63077Z"/>
<path id="path8_fill" d="M 85.655 12.2769C 85.2765 13.2 84.4828 13.6615 83.274 13.6615C 82.6634 13.6615 82.1628 13.4462 81.7721 13.0154C 81.4546 12.6585 81.2958 12.2769 81.2958 11.8708C 81.2958 10.9477 81.5095 9.47692 81.9369 7.45846L 83.274 0.369232L 86.9921 0L 85.2155 9.34154C 85.0079 10.2523 84.9041 10.8677 84.9041 11.1877C 84.9041 11.8892 85.1544 12.2523 85.655 12.2769Z"/>
<path id="path9_fill" d="M 91.5934 12.2769C 91.2149 13.2 90.4212 13.6615 89.2123 13.6615C 88.6018 13.6615 88.1012 13.4462 87.7104 13.0154C 87.393 12.6585 87.2342 12.2769 87.2342 11.8708C 87.2342 10.9477 87.4479 9.47692 87.8753 7.45846L 89.2123 0.369232L 92.9305 0L 91.1538 9.34154C 90.9462 10.2523 90.8425 10.8677 90.8425 11.1877C 90.8425 11.8892 91.0928 12.2523 91.5934 12.2769Z"/>
<path id="path10_fill" d="M 100.572 10.1723C 100.878 10.3815 101.03 10.72 101.03 11.1877C 101.03 11.6431 100.914 12.0185 100.682 12.3138C 100.45 12.6092 100.145 12.8554 99.7663 13.0523C 98.9849 13.4585 98.1729 13.6615 97.3303 13.6615C 96.4878 13.6615 95.8162 13.5692 95.3156 13.3846C 94.8271 13.2 94.4181 12.9354 94.0884 12.5908C 93.4412 11.9385 93.1176 11.0154 93.1176 9.82154C 93.1176 7.96308 93.6183 6.46769 94.6196 5.33539C 95.6941 4.11692 97.1655 3.50769 99.0337 3.50769C 100.194 3.50769 101.061 3.75385 101.635 4.24615C 102.062 4.61539 102.276 5.10154 102.276 5.70462C 102.276 7.87077 100.42 8.95385 96.7076 8.95385C 96.6587 9.27385 96.6343 9.56923 96.6343 9.84C 96.6343 10.4062 96.7564 10.8 97.0006 11.0215C 97.2571 11.2308 97.6173 11.3354 98.0813 11.3354C 98.5453 11.3354 99.0215 11.2308 99.5099 11.0215C 100.011 10.8 100.365 10.5169 100.572 10.1723ZM 96.8358 8.16C 97.7027 8.16 98.3865 7.88923 98.8872 7.34769C 99.3878 6.83077 99.6381 6.16 99.6381 5.33539C 99.6381 5.05231 99.5832 4.83692 99.4733 4.68923C 99.3756 4.52923 99.223 4.44923 99.0154 4.44923C 98.8078 4.44923 98.6124 4.49231 98.4293 4.57846C 98.2583 4.65231 98.0813 4.82462 97.8981 5.09539C 97.4463 5.71077 97.0922 6.73231 96.8358 8.16Z"/>
<path id="path11_fill" d="M 111.896 5.61231C 111.896 6.12923 111.682 6.54769 111.255 6.86769C 110.827 7.18769 110.266 7.34769 109.57 7.34769C 109.276 7.34769 109.044 7.30462 108.874 7.21846C 109.008 6.89846 109.093 6.54154 109.13 6.14769C 109.179 5.74154 109.203 5.48308 109.203 5.37231C 109.203 4.85539 109.026 4.59692 108.672 4.59692C 108.428 4.59692 108.165 4.75077 107.884 5.05846C 107.616 5.36615 107.366 5.76 107.134 6.24C 106.621 7.34769 106.364 8.46154 106.364 9.58154C 106.364 10.1969 106.48 10.6462 106.712 10.9292C 106.944 11.2 107.317 11.3354 107.83 11.3354C 108.538 11.3354 109.173 11.04 109.734 10.4492C 109.893 10.2646 110.015 10.0677 110.101 9.85846C 110.565 10.1046 110.797 10.5662 110.797 11.2431C 110.797 11.9323 110.418 12.5046 109.661 12.96C 108.88 13.4277 107.866 13.6615 106.621 13.6615C 104.142 13.6615 102.903 12.3385 102.903 9.69231C 102.903 7.76 103.446 6.24 104.533 5.13231C 105.583 4.04923 107.072 3.50769 109.002 3.50769C 110.931 3.50769 111.896 4.20923 111.896 5.61231Z"/>
<path id="path12_fill" d="M 112.676 11.4462C 112.676 11.1138 112.761 10.5292 112.932 9.69231L 113.903 4.70769L 112.822 4.70769L 112.895 4.15385C 114.361 3.71077 115.801 2.94769 117.218 1.86462L 118.097 1.86462L 117.657 3.87692L 119.086 3.87692L 118.921 4.70769L 117.511 4.70769L 116.577 9.69231C 116.418 10.4554 116.339 10.9662 116.339 11.2246C 116.339 11.8154 116.595 12.1723 117.108 12.2954C 116.986 12.7138 116.705 13.0462 116.265 13.2923C 115.826 13.5385 115.295 13.6615 114.672 13.6615C 114.049 13.6615 113.561 13.4646 113.207 13.0708C 112.853 12.6769 112.676 12.1354 112.676 11.4462Z"/>
<path id="path13_fill" d="M 122.922 13.6615C 120.236 13.6615 118.892 12.3877 118.892 9.84C 118.892 8.03077 119.387 6.54154 120.376 5.37231C 121.426 4.12923 122.861 3.50769 124.68 3.50769C 125.999 3.50769 126.994 3.81539 127.666 4.43077C 128.337 5.04615 128.673 6 128.673 7.29231C 128.673 9.26154 128.148 10.8185 127.098 11.9631C 126.072 13.0954 124.68 13.6615 122.922 13.6615ZM 123.398 5.63077C 123.252 5.96308 123.117 6.38154 122.995 6.88615C 122.885 7.37846 122.757 8.01846 122.61 8.80615C 122.464 9.59385 122.391 10.4738 122.391 11.4462C 122.391 11.7662 122.44 12.0308 122.537 12.24C 122.647 12.4492 122.843 12.5538 123.123 12.5538C 123.404 12.5538 123.63 12.4862 123.801 12.3508C 123.984 12.2154 124.143 11.9877 124.277 11.6677C 124.521 11.1015 124.741 10.2954 124.937 9.24923C 125.132 8.19077 125.236 7.43385 125.248 6.97846C 125.272 6.52308 125.285 6.12923 125.285 5.79692C 125.285 5.45231 125.236 5.16923 125.138 4.94769C 125.04 4.72615 124.851 4.61539 124.57 4.61539C 124.302 4.61539 124.076 4.70154 123.893 4.87385C 123.709 5.04615 123.545 5.29846 123.398 5.63077Z"/>
<path id="path14_fill" d="M 135.483 8.10462C 135.923 7.31692 136.143 6.52308 136.143 5.72308C 136.143 5.19385 135.953 4.92923 135.575 4.92923C 135.282 4.92923 134.983 5.18154 134.677 5.68615C 134.36 6.19077 134.152 6.76923 134.055 7.42154L 133.102 13.2923L 129.311 13.6615L 131.179 3.87692L 134.201 3.50769L 133.872 5.37231C 134.47 4.12923 135.441 3.50769 136.784 3.50769C 137.492 3.50769 138.035 3.69231 138.414 4.06154C 138.805 4.43077 139 4.99692 139 5.76C 139 6.51077 138.75 7.12615 138.249 7.60615C 137.761 8.08615 137.095 8.32616 136.253 8.32616C 135.886 8.32616 135.63 8.25231 135.483 8.10462Z"/>
<path id="path15_fill" d="M 0 0L 116.001 0L 116.001 3.84615L 0 3.84615L 0 0Z"/>
</defs>
</svg>
